# xmcd
#
# Track frame offsets:
# 150
# 15922
# 31667
# 51820
# 70979
# 93342
# 110621
# 125594
# 147269
# 164156
# 183312
#
# Disc length: 2727 seconds
#
#
# Revision: 0
# Processed by: cddbd v1.5.2PL0 Copyright (c) Steve Scherf et al.
# Submitted via: FreeRIP 2.96 
#
DISCID=920aa50b
DTITLE=Pam Tillis - Rhinestoned
DYEAR=2007
DGENRE=Country
TTITLE0=Something Burning Out
TTITLE1=Band In The Window
TTITLE2=Train Without A Whistle
TTITLE3=Life Has Sure Chaged Us Around
TTITLE4=Someone Somewhere Tonight
TTITLE5=Down By The Water
TTITLE6=Crazy By Myself
TTITLE7=Bettin' Money On Love
TTITLE8=That Was A Heartache
TTITLE9=The Hard Way
TTITLE10=Over My Head
EXTD=
EXTT0=
EXTT1=
EXTT2=
EXTT3=
EXTT4=
EXTT5=
EXTT6=
EXTT7=
EXTT8=
EXTT9=
EXTT10=
PLAYORDER=
